#!OML:ASF X:\für Bonn\!DataBase\2005_08_10_Bjorn_Final\c3d\bjorn.ASF
:FULLY-SPECIFIED
:DEGREES
338
root 0.334216 3.46138 19.61 -252.461 -4.19747 -531.966
lowerback 54.8119 4.13046 16.9425
upperback 25.1027 -1.92973 6.81057
thorax 8.78136 -6.99771 -0.489397
lowerneck 0.522772 12.9418 -6.9254
upperneck -0.639688 16.3386 -16.3462
head 0.627045 7.78785 -4.04137
rclavicle 4.07509e-014 3.39922e-014
rhumerus -66.4555 -32.0508 -55.5976
rradius 19.4626
rwrist -13.8489
rhand -10.0848 3.2642
rfingers 7.12502
rthumb 15.902 -26.1029
lclavicle 4.07509e-014 3.39922e-014
lhumerus -52.2886 -11.6249 90.0865
lradius 31.4006
lwrist 22.6886
lhand -28.3262 -353.682
lfingers 7.12502
lthumb -1.70098 36.2905
rfemur -50.5108 -62.3003 -26.337
rtibia 138.876
rfoot 8.4813 40.1286
rtoes 4.75055
lfemur -71.1434 25.8765 0.0104345
ltibia 139.286
lfoot 6.47982 -13.7905
ltoes -5.52725
339
root 0.323414 3.40813 19.5634 -252.647 -4.26171 -532.027
lowerback 54.934 4.13733 17.1071
upperback 25.2321 -1.95211 6.84437
thorax 8.95857 -7.03883 -0.534951
lowerneck 0.496471 13.0549 -6.83069
upperneck -0.536334 16.5332 -16.2746
head 0.678527 7.88407 -4.02078
rclavicle 3.53837e-014 6.06293e-015
rhumerus -66.1293 -31.1193 -57.0788
rradius 19.9664
rwrist -15.2796
rhand -9.96564 3.07317
rfingers 7.12502
rthumb 16.0167 -26.2847
lclavicle 3.53837e-014 6.06293e-015
lhumerus -52.846 -12.3628 90.4329
lradius 32.2659
lwrist 23.3246
lhand -28.3998 -353.513
lfingers 7.12502
lthumb -1.77204 36.4595
rfemur -49.8944 -63.274 -27.8481
rtibia 139.278
rfoot 8.34223 40.8046
rtoes 4.4632
lfemur -71.4333 26.9501 0.0118925
ltibia 139.712
lfoot 6.53447 -14.1502
ltoes -4.96759
340
root 0.312542 3.35562 19.5185 -252.82 -4.31828 -532.096
lowerback 55.063 4.1511 17.239
upperback 25.3476 -1.9773 6.88838
thorax 9.11473 -7.08743 -0.552059
lowerneck 0.454505 13.1712 -6.79997
upperneck -0.408003 16.7316 -16.1939
head 0.734473 7.97748 -3.9853
rclavicle -6.66426e-014 -5.64548e-014
rhumerus -65.807 -30.136 -58.4976
rradius 20.4251
rwrist -16.7323
rhand -9.87674 2.92115
rfingers 7.12502
rthumb 16.1023 -26.4299
lclavicle -6.66426e-014 -5.64548e-014
lhumerus -53.4055 -13.0007 90.7707
lradius 33.1337
lwrist 23.9355
lhand -28.4274 -353.365
lfingers 7.12502
lthumb -1.79871 36.6071
rfemur -49.1675 -64.2962 -29.4769
rtibia 139.667
rfoot 8.32245 41.4811
rtoes 4.49967
lfemur -71.7702 28.0384 0.0145449
ltibia 140.146
lfoot 6.60916 -14.5455
ltoes -4.4802
341
root 0.301814 3.30342 19.4744 -253.001 -4.35654 -532.159
lowerback 55.1844 4.16134 17.3962
upperback 25.4746 -2.00818 6.94717
thorax 9.29085 -7.14179 -0.565385
lowerneck 0.421388 13.2816 -6.82957
upperneck -0.297421 16.9139 -16.0982
head 0.774975 8.06418 -3.9376
rclavicle 3.48867e-014 2.15681e-014
rhumerus -65.5245 -29.165 -59.8644
rradius 20.8948
rwrist -18.0749
rhand -9.81103 2.8094
rfingers 7.12502
rthumb 16.1656 -26.5365
lclavicle 3.48867e-014 2.15681e-014
lhumerus -53.9065 -13.5254 91.0604
lradius 33.9401
lwrist 24.4238
lhand -28.4655 -353.289
lfingers 7.12502
lthumb -1.83553 36.6829
rfemur -48.3003 -65.3279 -31.2088
rtibia 140.032
rfoot 8.29849 42.1474
rtoes 4.461
lfemur -72.0735 29.2199 0.0290016
ltibia 140.571
lfoot 6.59158 -14.9549
ltoes -4.47978
342
root 0.290102 3.25002 19.4308 -253.163 -4.4034 -532.222
lowerback 55.2728 4.18371 17.54
upperback 25.6175 -2.04149 7.01522
thorax 9.48835 -7.19909 -0.567227
lowerneck 0.352121 13.3811 -6.87262
upperneck -0.162322 17.091 -15.971
head 0.824622 8.14549 -3.87366
rclavicle -5.73494e-014 -3.44891e-014
rhumerus -65.3054 -28.2632 -61.0807
rradius 21.3509
rwrist -19.3426
rhand -9.69815 2.71055
rfingers 7.12502
rthumb 16.2743 -26.6265
lclavicle -5.73494e-014 -3.44891e-014
lhumerus -54.3813 -14.0813 91.3676
lradius 34.7606
lwrist 24.9164
lhand -28.5041 -353.095
lfingers 7.12502
lthumb -1.87274 36.8763
rfemur -47.3605 -66.4092 -33.0635
rtibia 140.417
rfoot 8.20454 42.8357
rtoes 4.43009
lfemur -72.4518 30.3712 -0.000621991
ltibia 141.007
lfoot 6.60176 -15.3952
ltoes -4.57608
343
root 0.278855 3.19695 19.3892 -253.329 -4.4507 -532.286
lowerback 55.3495 4.21014 17.7047
upperback 25.788 -2.08294 7.08854
thorax 9.72555 -7.26334 -0.576457
lowerneck 0.196328 13.4624 -6.93699
upperneck 0.033481 17.2648 -15.8075
head 0.902641 8.21692 -3.78555
rclavicle 1.42131e-014 -5.12864e-014
rhumerus -65.0618 -27.3816 -62.3288
rradius 21.8134
rwrist -20.605
rhand -9.64808 2.62498
rfingers 7.12502
rthumb 16.3225 -26.7081
lclavicle 1.42131e-014 -5.12864e-014
lhumerus -54.8058 -14.5976 91.636
lradius 35.5943
lwrist 25.411
lhand -28.5989 -352.947
lfingers 7.12502
lthumb -1.96429 37.0235
rfemur -46.3965 -67.4296 -34.9081
rtibia 140.779
rfoot 8.14207 43.4718
rtoes 4.26651
lfemur -72.8386 31.4591 -0.0623249
ltibia 141.423
lfoot 6.63116 -15.7708
ltoes -4.68744
344
root 0.267225 3.14263 19.3484 -253.496 -4.47256 -532.357
lowerback 55.4133 4.25772 17.848
upperback 25.9635 -2.12213 7.19399
thorax 9.9695 -7.33829 -0.544823
lowerneck 0.0995341 13.556 -7.0149
upperneck 0.213986 17.4405 -15.6779
head 0.967571 8.29146 -3.71236
rclavicle -1.90585e-014 -7.20594e-014
rhumerus -64.8057 -26.4426 -63.5161
rradius 22.2649
rwrist -21.8342
rhand -9.55043 2.54042
rfingers 7.12502
rthumb 16.4165 -26.7849
lclavicle -1.90585e-014 -7.20594e-014
lhumerus -55.2213 -15.0214 91.9051
lradius 36.4088
lwrist 25.7902
lhand -28.666 -352.81
lfingers 7.12502
lthumb -2.02914 37.1605
rfemur -45.3697 -68.4207 -36.7834
rtibia 141.13
rfoot 8.10412 44.0862
rtoes 4.19104
lfemur -73.2168 32.6338 -0.0680136
ltibia 141.836
lfoot 6.66722 -16.2206
ltoes -4.84859
345
root 0.256379 3.08829 19.3088 -253.639 -4.5173 -532.445
lowerback 55.4649 4.31578 17.9754
upperback 26.1484 -2.15719 7.2796
thorax 10.2237 -7.40673 -0.531742
lowerneck -0.0136917 13.6317 -7.08568
upperneck 0.374132 17.5941 -15.5191
head 1.02444 8.35783 -3.63064
rclavicle -1.71949e-014 -6.36111e-015
rhumerus -64.6146 -25.5982 -64.6177
rradius 22.7109
rwrist -22.8948
rhand -9.46151 2.44614
rfingers 7.12502
rthumb 16.5021 -26.8721
lclavicle -1.71949e-014 -6.36111e-015
lhumerus -55.598 -15.4683 92.1349
lradius 37.2081
lwrist 26.1664
lhand -28.6664 -352.675
lfingers 7.12502
lthumb -2.02956 37.295
rfemur -44.3346 -69.4395 -38.7192
rtibia 141.495
rfoot 8.03749 44.6917
rtoes 4.2299
lfemur -73.6527 33.7798 -0.137018
ltibia 142.25
lfoot 6.71117 -16.6258
ltoes -4.91631
